<svg xmlns="http://www.w3.org/2000/svg" width="223" height="410" viewBox="0 0 223 410" fill="none">
<path d="M145.98 180.28C151.214 188.647 156.816 198.963 161.142 209.94C166.068 222.475 168.304 235.61 169.122 248.931C170.48 271.379 165.928 292.699 155.977 312.804C147.465 330.118 136.656 345.755 122.654 359.078C114.781 366.586 106.409 373.443 96.9629 378.888C88.4117 383.837 79.3477 387.739 69.6678 389.933C63.3972 391.386 57.0676 391.743 50.7272 390.326C47.9048 389.717 45.241 388.6 42.6751 387.259C37.3015 384.327 34.3504 379.751 33.2498 373.901C32.6064 370.267 32.7563 366.607 33.3766 363.048C34.5803 355.874 36.8558 348.98 40.1255 342.498C42.9838 337.01 46.0302 331.563 48.7944 326.055C54.2213 315.509 59.554 304.942 64.813 294.262C67.5403 288.696 69.7806 282.878 71.7756 277.056C76.0054 264.528 77.6544 251.641 77.0048 238.454C76.4361 227.402 73.3455 217.086 68.2274 207.267C60.6692 192.786 49.7752 181.672 35.7982 173.437C33.5717 172.119 31.2105 170.97 28.829 169.914C14.2006 163.557 -1.12738 159.757 -17.057 158.288C-30.7618 157.004 -44.3046 157.479 -57.9359 158.82C-68.599 159.866 -79.3155 160.704 -89.9379 161.563C-94.55 161.946 -99.2118 161.875 -103.776 161.58C-105.039 161.504 -106.242 161.146 -107.27 160.432C-108.989 159.273 -110.708 158.114 -112.484 156.992C-114.859 155.446 -116.412 153.289 -117.409 150.612C-120.567 142.202 -120.739 133.647 -117.402 125.259C-113.712 115.914 -107.798 108.132 -100.558 101.275C-87.7448 89.1235 -72.4044 82.1447 -54.9265 79.8612C-40.4373 77.9665 -26.0055 78.6195 -11.7585 81.4973C0.13644 83.8675 11.6733 87.4404 23.19 91.1075C37.7872 95.784 52.034 101.173 65.9023 107.858C86.6864 117.857 104.887 131.386 120.717 148.144C129.597 157.642 137.827 167.64 145.98 180.28Z" fill="#FB421F"/>
<mask id="mask0_27_11230" style="mask-type:alpha" maskUnits="userSpaceOnUse" x="-120" y="78" width="290" height="314">
<path d="M145.98 180.28C151.214 188.647 156.816 198.963 161.142 209.94C166.068 222.475 168.304 235.61 169.122 248.931C170.48 271.379 165.928 292.699 155.977 312.804C147.465 330.118 136.656 345.755 122.654 359.078C114.781 366.586 106.409 373.443 96.9629 378.888C88.4117 383.837 79.3477 387.739 69.6678 389.933C63.3972 391.386 57.0676 391.743 50.7272 390.326C47.9048 389.717 45.241 388.6 42.6751 387.259C37.3015 384.327 34.3504 379.751 33.2498 373.901C32.6064 370.267 32.7563 366.607 33.3766 363.048C34.5803 355.874 36.8558 348.98 40.1255 342.498C42.9838 337.01 46.0302 331.563 48.7944 326.055C54.2213 315.509 59.554 304.942 64.813 294.262C67.5403 288.696 69.7806 282.878 71.7756 277.056C76.0054 264.528 77.6544 251.641 77.0048 238.454C76.4361 227.402 73.3455 217.086 68.2274 207.267C60.6692 192.786 49.7752 181.672 35.7982 173.437C33.5717 172.119 31.2105 170.97 28.829 169.914C14.2006 163.557 -1.12738 159.757 -17.057 158.288C-30.7618 157.004 -44.3046 157.479 -57.9359 158.82C-68.599 159.866 -79.3155 160.704 -89.9379 161.563C-94.55 161.946 -99.2118 161.875 -103.776 161.58C-105.039 161.504 -106.242 161.146 -107.27 160.432C-108.989 159.273 -110.708 158.114 -112.484 156.992C-114.859 155.446 -116.412 153.289 -117.409 150.612C-120.567 142.202 -120.739 133.647 -117.402 125.259C-113.712 115.914 -107.798 108.132 -100.558 101.275C-87.7448 89.1235 -72.4044 82.1447 -54.9265 79.8612C-40.4373 77.9665 -26.0055 78.6195 -11.7585 81.4973C0.13644 83.8675 11.6733 87.4404 23.19 91.1075C37.7872 95.784 52.034 101.173 65.9023 107.858C86.6864 117.857 104.887 131.386 120.717 148.144C129.597 157.642 137.827 167.64 145.98 180.28Z" fill="black"/>
</mask>
<g mask="url(#mask0_27_11230)">
<path d="M2.30645 264.124C2.3421 264.672 2.39793 264.88 2.35946 265.068C1.84834 275.278 3.92479 285.083 6.96447 294.74C10.6375 306.589 15.4451 317.933 20.6308 329.109C24.5249 337.467 28.7028 345.638 33.1454 353.715C37.3069 361.243 41.6388 368.659 46.5191 375.794C51.0049 382.456 56.2297 388.384 62.7996 393.015C76.2974 402.448 90.8069 404.033 106.082 398.014C119.542 392.705 129.62 383.268 136.822 370.837C146.589 354.018 148.546 335.999 143.974 317.238C142.58 311.551 140.487 306.163 137.77 300.943C137.62 300.716 137.47 300.489 137.207 300.091C136.601 300.655 135.994 301.219 135.445 301.746C124.116 312.499 111.361 320.85 96.5994 326.041C86.6005 329.551 76.3446 331.192 65.7593 330.113C56.042 329.113 47.1069 325.964 39.3918 319.724C33.3703 314.812 29.0145 308.717 27.4021 300.972C25.418 291.678 27.8289 283.23 33.5202 275.796C35.3984 273.331 37.7096 271.15 39.8707 268.742C39.7764 268.723 39.456 268.608 39.1731 268.551C33.0779 268.093 29.1072 264.926 27.2043 259.086C26.3092 256.251 26.0183 253.343 26.1239 250.417C26.2737 245.831 27.2914 241.324 28.7615 237.007C32.1402 227.185 37.4398 218.542 43.9827 210.544C53.3516 199.047 64.5625 189.596 77.5576 182.473C83.6487 179.098 90.1333 176.443 96.823 174.468C97.3522 174.281 97.8247 174.132 98.3347 174.04C98.4299 173.813 98.506 173.682 98.4877 173.53C99.7964 162.059 99.5569 150.714 96.5421 139.49C94.6247 132.517 91.667 126.069 87.1775 120.389C78.7807 109.786 67.8149 104.553 54.2996 104.596C50.0713 104.617 45.9162 105.243 41.891 106.436C41.5321 106.51 41.1539 106.678 40.7758 106.847C40.8124 107.149 40.7546 107.432 40.848 107.696C43.5887 121.467 43.5918 135.417 41.9907 149.284C40.3126 163.529 36.862 177.314 31.2616 190.563C28.2521 197.611 24.5642 204.373 19.6715 210.3C16.6184 213.95 13.1708 217.127 8.98983 219.565C6.92773 220.765 4.64045 221.625 2.29827 222.031C-3.74579 223.008 -8.60746 220.837 -12.4214 216.179C-15.2585 212.752 -16.8475 208.744 -18.0392 204.474C-20.0289 196.651 -20.1306 188.723 -19.0996 180.78C-17.3301 167.291 -12.5822 154.851 -5.81728 143.117C-0.572576 134.02 5.95205 125.872 13.8124 118.88C20.2709 113.223 27.3481 108.626 35.3445 105.542C35.8737 105.355 36.3087 105.149 36.8947 104.925C36.8398 104.472 36.7657 104.113 36.6916 103.754C34.9435 96.9143 32.3448 90.3921 28.2142 84.6379C18.9386 71.8422 6.37065 66.0367 -9.35881 67.543C-17.7239 68.3414 -25.1929 71.7293 -32.0441 76.4219C-37.4191 80.1387 -42.0984 84.5377 -46.308 89.5237C-46.6303 89.9 -46.9527 90.2762 -47.1807 90.6718C-45.943 92.7906 -44.6861 94.8152 -43.486 96.8773C-38.6671 105.277 -35.1906 114.237 -32.8861 123.646C-29.5228 137.495 -28.4439 151.468 -30.4992 165.636C-31.5263 172.597 -33.3455 179.348 -36.56 185.715C-38.6517 189.709 -41.1764 193.418 -44.7732 196.122C-46.1742 197.212 -47.7446 198.168 -49.4084 198.86C-54.8153 201.048 -60.3024 199.536 -64.4752 194.952C-67.6145 191.561 -69.4865 187.495 -70.961 183.167C-71.3345 182.108 -71.8975 181.257 -72.7251 180.499C-79.5714 174.092 -85.0734 166.634 -89.515 158.312C-97.0489 144.201 -100.993 129.104 -101.271 113.134C-101.393 105.545 -100.572 98.1492 -98.2975 90.8529C-96.6918 85.6305 -94.4077 80.6937 -90.6734 76.5931C-85.2331 70.6303 -78.6378 68.6359 -70.8507 70.9121C-65.7033 72.4042 -61.3545 75.4033 -57.3665 78.9673C-54.6767 81.4315 -52.1765 84.1026 -50.0168 86.9989C-49.6223 87.4723 -49.2652 87.889 -48.7956 88.4759C-48.3029 87.9871 -47.9238 87.5732 -47.4879 87.1219C-42.8049 81.7414 -37.5387 76.8727 -31.5401 72.9884C-23.8383 67.9781 -15.4638 64.7259 -6.1758 64.4596C11.0029 64.0348 23.9608 71.5405 32.9276 86.0906C35.9477 91.0288 38.0411 96.4165 39.5485 102.028C39.6784 102.595 39.9027 103.181 40.1077 103.862C40.7312 103.694 41.298 103.564 41.8648 103.434C50.8774 101.147 59.8633 100.917 68.7242 103.707C79.301 106.995 87.1654 113.707 92.9245 123.035C98.6653 132.212 101.269 142.32 102.228 153.027C102.752 159.126 102.634 165.241 102.083 171.317C102.061 171.902 101.984 172.525 101.943 173.204C102.661 173.056 103.265 172.983 103.832 172.853C111.482 171.466 119.185 171.024 126.9 172.45C147.536 176.267 161.099 188.268 167.27 208.338C170.309 218.24 170.553 228.359 169.249 238.603C167.284 253.772 161.568 267.586 153.271 280.333C149.492 286.095 145.3 291.477 140.637 296.518C140.372 296.857 140.068 297.139 139.689 297.553C140.626 299.463 141.619 301.335 142.461 303.226C154.33 328.83 152.188 360.76 131.655 384.125C123.977 392.873 114.684 399.425 103.477 402.836C86.2989 408.074 70.7961 404.617 57.0422 393.068C52.5076 389.295 48.6552 384.825 45.333 379.924C40.6971 373.035 36.421 365.827 32.4096 358.525C26.4483 347.781 20.998 336.699 16.228 325.411C11.2896 313.746 6.86112 301.988 3.92611 289.651C2.08751 281.81 1.0986 273.897 1.80909 265.84C1.82927 265.5 1.86868 265.066 1.88886 264.727C1.96487 264.595 2.02165 264.557 2.30645 264.124ZM60.5399 258.912C61.3521 258.783 61.8428 258.785 62.2585 258.673C68.4546 257.432 74.6469 257.173 80.949 257.82C93.9112 259.285 105.558 264.068 116.156 271.583C124.439 277.448 131.32 284.647 136.875 293.049C137.176 293.504 137.57 293.977 137.945 294.545C138.381 294.093 138.741 293.774 139.044 293.492C141.415 290.538 144.012 287.678 146.251 284.648C155.625 271.924 162.229 257.849 164.988 242.155C166.744 232.346 166.895 222.455 164.667 212.669C162.756 204.224 159.198 196.622 153.39 190.182C147.019 183.136 139.127 178.726 129.962 176.464C120.702 174.182 111.395 174.543 102.157 176.489C101.949 176.545 101.779 176.658 101.609 176.77C101.533 176.902 101.457 177.034 101.437 177.128C101.38 177.411 101.303 177.788 101.245 178.071C98.3798 196.691 92.084 214.07 82.8473 230.457C77.8297 239.404 71.9085 247.724 64.6698 255.039C63.4006 256.204 62.0747 257.407 60.5399 258.912ZM135.595 297.159C135.201 296.441 134.883 295.835 134.488 295.362C132.498 292.598 130.527 289.741 128.366 287.09C119.047 275.955 107.449 268.039 93.6488 263.701C78.604 258.962 63.8242 258.943 49.4126 266.268C42.9444 269.566 37.6608 274.038 33.8054 280.177C27.3098 290.59 28.019 302.522 35.6267 312.178C39.609 317.215 44.6161 320.839 50.4199 323.447C57.3544 326.532 64.6544 327.825 72.1863 327.74C84.5507 327.561 96.0411 323.962 107.048 318.399C115.597 314.052 123.338 308.608 130.404 302.142C132.109 300.525 133.776 298.851 135.595 297.159ZM37.6763 107.835C37.0528 108.003 36.7506 108.039 36.4292 108.17C30.569 110.413 25.1584 113.582 20.1605 117.376C13.5914 122.371 7.86817 128.276 2.97257 134.94C-7.42575 149.076 -14.1865 164.641 -16.4244 182.112C-17.2803 188.715 -17.2114 195.36 -15.8964 201.915C-15.0252 206.071 -13.6623 209.983 -11.2409 213.522C-7.37394 219.125 -1.75595 220.958 4.61422 218.623C8.65956 217.091 11.9918 214.48 14.9294 211.396C19.8001 206.299 23.3716 200.348 26.3783 194.036C31.2688 183.786 34.5002 173.002 36.6568 161.949C39.5838 146.878 40.5863 131.611 38.8519 116.277C38.6362 113.483 38.1182 110.725 37.6763 107.835ZM97.774 177.511C97.2072 177.641 96.6972 177.733 96.2815 177.845C90.2154 179.652 84.3735 182.046 78.7934 185.082C65.9311 192.036 55.0416 201.357 45.8998 212.704C39.8303 220.306 34.7587 228.554 31.5521 237.772C29.9869 242.316 28.9307 247.012 28.931 251.825C28.8841 254.222 29.2336 256.602 30.0931 258.889C31.8304 263.615 35.596 266.102 40.5807 265.744C42.1857 265.58 43.8669 265.284 45.3603 264.705C49.4431 263.229 53.1324 261.035 56.4838 258.33C61.2363 254.535 65.368 250.172 69.0484 245.373C84.1499 225.516 93.4659 203.203 97.675 178.718C97.7327 178.435 97.7153 178.039 97.774 177.511ZM-67.1569 185.466C-65.4928 189.587 -63.3177 193.37 -59.325 195.708C-56.2176 197.569 -52.9516 197.45 -49.7935 195.933C-48.8101 195.446 -47.7506 194.827 -46.8798 194.17C-44.0403 192.048 -41.9533 189.281 -40.2051 186.249C-37.3734 181.276 -35.5975 175.941 -34.4057 170.34C-32.2519 160.023 -32.042 149.604 -33.2477 139.142C-34.8914 124.809 -38.8033 111.241 -45.8521 98.6048C-46.9021 96.7698 -48.0089 94.9723 -49.1156 93.1748C-49.3427 93.325 -49.4938 93.3433 -49.5506 93.3808C-50.0057 93.9264 -50.4608 94.4721 -50.8216 95.037C-64.7145 114.747 -71.7452 136.691 -71.8568 160.833C-71.8823 167.459 -71.0205 174.069 -69.1387 180.494C-68.8403 181.439 -68.3716 182.271 -67.5623 182.878C-65.8685 184.206 -64.194 185.628 -62.5195 187.05C-62.1808 187.316 -61.9931 187.6 -61.6544 187.865C-63.8628 187.857 -65.2727 186.341 -67.1569 185.466ZM-50.7681 90.9222C-50.9557 90.6384 -51.0491 90.3738 -51.1992 90.1467C-55.0488 84.941 -59.391 80.2242 -64.7571 76.6738C-67.6566 74.7562 -70.7658 73.3852 -74.1801 72.7869C-79.2168 71.9559 -83.6201 73.3169 -87.4651 76.7564C-90.2306 79.2374 -92.2242 82.2688 -93.7848 85.585C-96.0111 90.2388 -97.3137 95.1793 -98.0128 100.292C-99.719 112.026 -98.7442 123.62 -95.8815 135.107C-92.0705 150.374 -85.2333 164.047 -74.7646 175.81C-74.1631 176.473 -73.5616 177.136 -72.9034 177.761C-75.8829 162.271 -74.8054 147.118 -70.8593 132.108C-66.9507 117.041 -60.3101 103.268 -50.7681 90.9222Z" fill="black"/>
</g>
<path d="M110.729 29.9608C107.148 29.9608 104.624 27.6714 104.389 24.2666C104.213 22.2707 104.8 20.4509 105.916 18.8072C107.09 17.1635 109.673 15.9307 111.727 17.1635C111.903 17.2809 112.138 17.3396 112.373 17.3983C115.073 17.6918 117.48 20.6857 117.421 23.797C117.363 26.7908 114.897 29.3738 111.727 29.8434C111.375 29.9021 110.964 29.9608 110.729 29.9608Z" fill="black"/>
<path d="M139.083 12.115C135.033 12.115 132.391 8.8276 133.33 4.83576C133.624 3.48558 134.269 2.2528 135.267 1.31355C136.383 0.256885 137.674 -0.271447 139.259 0.139478C139.964 0.315589 140.668 0.315589 141.314 0.491699C143.662 0.961327 145.306 2.37021 145.893 4.71835C146.538 7.06649 145.658 8.94501 143.897 10.4713C142.547 11.6454 140.903 12.115 139.083 12.115Z" fill="black"/>
<path d="M99.8691 46.6914C99.8104 50.6245 96.1121 53.1488 92.5312 51.6225C87.6001 49.5679 87.1305 44.2258 89.3025 40.821C89.8308 39.9992 90.594 39.4709 91.5332 39.1773C92.3551 38.9425 93.2356 38.8838 93.8227 39.4121C94.7619 40.2927 95.936 40.5862 96.934 41.232C98.7538 42.406 99.8691 44.4607 99.8691 46.6914Z" fill="black"/>
<path d="M108.088 107.156C103.802 107.156 100.632 103.751 100.867 99.8181C101.043 97.059 102.804 95.7088 105.505 96.3546C105.916 96.472 106.327 96.4133 106.737 96.472C107.501 96.5307 108.322 96.5307 109.086 96.6481C111.786 97.1177 113.723 99.2898 113.723 101.873C113.723 104.28 111.786 106.51 109.203 107.097C108.792 107.097 108.322 107.097 108.088 107.156Z" fill="black"/>
<path d="M97.3449 73.2254C97.3449 75.3387 96.6991 77.0998 95.2902 78.5087C93.353 80.4459 90.5353 80.622 88.4219 78.8609C85.7803 76.7476 85.1932 72.3448 87.1892 69.7032C88.6567 67.7659 90.7701 67.4137 93.0008 67.8833C95.2902 68.353 96.6404 69.8793 97.1688 72.1687C97.2862 72.5796 97.3449 72.9905 97.3449 73.2254Z" fill="black"/>
<path d="M159.805 116.196C159.805 113.144 162.095 110.913 165.324 110.913C169.081 110.913 171.781 113.379 171.781 116.842C171.781 119.895 169.139 122.36 165.911 122.419C162.447 122.419 159.805 119.719 159.805 116.196Z" fill="black"/>
<path d="M134.798 121.362C131.099 121.362 127.518 117.781 127.577 114.083C127.577 111.5 129.573 110.091 132.039 110.854C132.626 111.03 133.33 111.03 133.976 111.03C136.676 110.913 138.672 112.146 139.553 114.435C140.903 117.899 138.555 121.421 134.798 121.362Z" fill="black"/>
<path d="M204.948 104.925C204.948 107.508 202.776 109.798 200.076 110.091C197.728 110.326 195.262 108.917 194.382 106.745C193.795 105.336 193.853 103.986 194.734 102.753C194.793 102.636 194.91 102.518 194.969 102.401C196.965 99.642 199.959 99.1137 202.835 100.992C204.185 101.931 204.948 103.34 204.948 104.925Z" fill="black"/>
<path d="M159.218 7.94706C159.218 6.71429 159.512 5.71633 160.158 4.77707C161.332 3.01597 163.21 2.54634 165.089 3.5443C165.852 3.95523 166.556 4.36615 167.261 4.89448C168.787 6.12726 169.433 7.71225 168.963 9.64947C168.494 11.6454 167.143 12.8782 165.089 13.2891C163.152 13.6413 161.567 12.9369 160.392 11.4106C159.571 10.3539 159.218 9.17984 159.218 7.94706Z" fill="black"/>
<path d="M216.807 74.0472C219.918 73.9885 222.325 76.5715 222.266 79.3305C222.207 80.9742 221.62 82.3244 220.387 83.4398C217.805 85.7879 213.871 84.5551 213.108 81.1503C212.932 80.3872 212.873 79.5066 213.108 78.8022C213.46 77.6281 214.048 76.4541 214.635 75.3387C215.222 74.3994 216.22 74.0472 216.807 74.0472Z" fill="black"/>
<path d="M171.722 46.6914C171.722 46.5152 171.664 46.2804 171.664 46.0456C171.546 44.1084 172.603 42.8169 174.423 42.406C176.947 41.8777 179.765 43.5801 180.293 45.9869C180.88 48.5112 179.236 50.9767 176.653 51.6225C174.012 52.2682 171.135 50.2723 171.605 47.2784C171.664 47.1023 171.664 46.9262 171.722 46.6914Z" fill="black"/>
<path d="M124.701 36.3009C124.759 34.481 125.229 33.0722 126.403 32.0155C128.399 30.1957 131.158 30.8414 132.039 33.0135C132.273 33.5418 132.567 34.0114 132.86 34.481C133.682 36.066 133.741 37.651 132.684 39.1186C131.686 40.5275 130.278 41.1732 128.516 40.8797C126.638 40.5862 125.523 39.4121 124.935 37.7097C124.818 37.1227 124.759 36.5944 124.701 36.3009Z" fill="black"/>
<path d="M147.184 88.0187C148.769 88.7231 150.824 89.1927 151.939 91.13C152.82 92.7149 152.467 94.6522 151.117 96.0611C149.708 97.4699 147.654 97.8222 145.951 97.0003C143.486 95.7675 142.429 92.3627 143.779 89.9559C144.425 88.7231 145.54 88.0187 147.184 88.0187Z" fill="black"/>
<path d="M172.662 92.9498C170.137 92.9498 168.083 90.8364 168.2 88.3122C168.259 87.3142 168.552 86.2576 169.022 85.377C169.726 83.9681 171.077 83.4398 172.544 83.7333C173.542 83.9094 174.54 84.3204 175.362 84.9074C177.123 86.0815 177.769 88.0187 177.182 89.7798C176.595 91.6583 174.657 92.9498 172.662 92.9498Z" fill="black"/>
<path d="M114.31 54.499C114.31 53.2075 114.662 52.0921 115.602 51.2116C117.069 49.8614 119.183 49.9788 120.415 51.5051C120.826 52.0334 121.237 52.503 121.707 52.9727C122.411 53.6771 122.94 54.499 123.174 55.4969C123.761 58.256 121.472 60.6041 118.713 60.0758C116.306 59.6649 114.369 57.1993 114.31 54.499Z" fill="black"/>
<path d="M188.453 24.5014C186.75 24.5014 185.283 23.4447 184.872 21.7423C184.696 20.9792 184.402 20.2748 183.874 19.629C182.641 18.1614 183.111 16.1068 184.813 15.2263C185.165 15.0501 185.576 14.874 185.987 14.8153C188.746 14.4631 192.034 16.9874 192.327 19.7464C192.621 22.2707 190.801 24.5014 188.453 24.5014Z" fill="black"/>
<path d="M149.18 29.8435C149.18 31.2524 148.945 32.309 148.241 33.307C146.773 35.4203 143.897 35.5964 142.194 33.6005C140.786 32.0155 140.668 29.7848 141.783 28.0237C142.018 27.6127 142.253 27.2018 142.429 26.7909C143.368 24.4428 146.01 23.9144 147.713 25.7929C148.887 27.0257 149.18 28.4933 149.18 29.8435Z" fill="black"/>
<path d="M206.592 36.7705C206.592 39.0012 204.948 40.7623 202.776 40.9384C200.428 41.1145 198.374 39.4121 198.139 37.0053C198.021 36.1247 198.08 35.2442 198.139 34.3636C198.315 32.8373 199.548 31.7807 201.133 31.6633C203.774 31.4285 206.651 34.1288 206.592 36.7705Z" fill="black"/>
<path d="M219.037 54.0293C219.037 56.2601 217.276 58.256 214.987 58.4908C212.873 58.7256 210.819 57.3167 210.408 55.2034C210.114 53.7945 210.467 52.3856 211.054 51.1529C211.288 50.6245 211.934 50.1549 212.462 49.8614C215.222 48.5112 219.037 50.918 219.037 54.0293Z" fill="black"/>
<path d="M191.681 68.8226C191.681 70.7598 190.449 72.4035 188.57 72.8144C186.809 73.2254 185.048 72.2861 184.226 70.525C183.991 70.0554 183.698 69.527 183.346 69.1161C182.113 67.4137 182.7 65.183 184.637 64.3024C187.69 62.9522 191.681 65.5352 191.681 68.8226Z" fill="black"/>
<path d="M163.328 34.1288C163.328 34.3049 163.328 34.5397 163.269 34.8333C162.975 36.8292 161.567 38.2381 159.747 38.2381C157.986 38.2381 156.518 36.9466 156.166 35.0681C155.99 34.0114 155.755 32.9547 155.579 31.8981C155.344 30.6653 155.638 29.5499 156.694 28.7868C157.81 27.9649 158.984 28.0236 160.158 28.6694C161.743 29.4912 163.328 32.1329 163.328 34.1288Z" fill="black"/>
<path d="M131.569 79.8589C131.452 81.3852 130.688 82.6766 129.103 83.3811C127.518 84.0855 125.992 83.8507 124.642 82.6766C123.057 81.3265 122.529 78.8022 123.409 76.865C124.29 74.9278 126.462 74.1646 128.399 75.1626C130.395 76.1606 131.569 77.863 131.569 79.8589Z" fill="black"/>
<path d="M145.306 55.0273C145.247 55.9078 145.247 56.4948 145.188 57.0232C144.953 58.4321 144.132 59.3713 142.723 59.7822C141.372 60.1345 140.198 59.7235 139.318 58.7256C137.674 56.9645 137.85 53.9119 139.494 52.2682C140.609 51.2115 142.194 50.918 143.545 51.5637C144.836 52.1508 145.423 53.3836 145.364 54.9098C145.306 55.086 145.306 55.2034 145.306 55.0273Z" fill="black"/>
<path d="M160.099 76.4541C160.099 77.9804 158.984 79.2718 157.399 79.6241C155.872 79.9763 154.522 79.5654 153.407 78.3913C152.35 77.2172 151.998 75.867 152.409 74.3407C152.761 73.0493 153.642 72.2274 154.933 71.9339C156.166 71.6404 157.222 72.0513 158.103 72.9906C158.455 73.4015 158.866 73.8124 159.218 74.2233C159.864 74.8691 160.158 75.5735 160.099 76.4541Z" fill="black"/>
<path d="M145.13 70.3489C145.071 72.2274 144.484 73.3428 143.192 73.9885C141.901 74.6342 140.609 74.4581 139.494 73.5776C137.792 72.2861 137.381 69.6444 138.496 67.8246C139.846 65.6526 142.781 65.6526 144.073 67.8833C144.601 68.7052 144.895 69.7619 145.13 70.3489Z" fill="black"/>
<path d="M166.439 59.3126C166.439 61.0737 165.441 62.5413 163.915 62.9522C162.388 63.3632 160.745 62.6587 159.923 61.1324C159.394 60.1932 159.16 59.1365 159.394 58.0211C159.688 56.6123 160.51 55.673 161.919 55.3208C163.269 54.9686 164.384 55.4382 165.324 56.4361C166.087 57.1993 166.38 58.256 166.439 59.3126Z" fill="black"/>
<path d="M157.34 52.4443C155.403 52.4443 153.642 50.6245 153.642 48.6286C153.642 46.8675 154.992 45.5173 156.753 45.576C159.042 45.576 160.803 47.1023 160.803 48.9808C160.803 50.8006 159.218 52.4443 157.34 52.4443Z" fill="black"/>
</svg>